<svg width="188" height="196" viewBox="0 0 188 196" fill="none" xmlns="http://www.w3.org/2000/svg">
<g filter="url(#filter0_i_608_1255)">
<g clip-path="url(#clip0_608_1255)">
<path d="M60.9518 3.35589L56.8106 16.1008C55.5264 19.9773 53.353 23.4996 50.4644 26.3862C47.5757 29.2728 44.0519 31.4436 40.1744 32.7251L27.4176 36.8663L27.1558 36.9377C26.1728 37.2837 25.3215 37.9263 24.7192 38.7768C24.117 39.6273 23.7936 40.6437 23.7936 41.6858C23.7936 42.7279 24.117 43.7443 24.7192 44.5948C25.3215 45.4453 26.1728 46.0879 27.1558 46.4339L39.9126 50.5751C43.7923 51.855 47.3185 54.0251 50.2093 56.9118C53.1001 59.7985 55.2753 63.3216 56.5607 67.1994L60.7019 79.9324C61.048 80.9154 61.6905 81.7667 62.541 82.369C63.3915 82.9712 64.4079 83.2947 65.45 83.2947C66.4921 83.2947 67.5086 82.9712 68.359 82.369C69.2095 81.7667 69.8521 80.9154 70.1981 79.9324L74.3393 67.1994C75.6153 63.3084 77.7861 59.771 80.6775 56.8713C83.5689 53.9717 87.1001 51.7907 90.9874 50.5037L103.744 46.3625C104.727 46.0165 105.579 45.3739 106.181 44.5234C106.783 43.6729 107.106 42.6565 107.106 41.6144C107.106 40.5723 106.783 39.5559 106.181 38.7054C105.579 37.8549 104.727 37.2123 103.744 36.8663L90.9874 32.7251C87.1562 31.4106 83.6823 29.225 80.8389 26.3403C77.9955 23.4556 75.8603 19.9506 74.6011 16.1008L70.448 3.36779C70.1045 2.38067 69.4622 1.52496 68.6103 0.919419C67.7584 0.313873 66.7392 -0.0114746 65.694 -0.0114746C64.6488 -0.0114746 63.6295 0.313873 62.7776 0.919419C61.9257 1.52496 61.2834 2.38067 60.9399 3.36779M2.58233 97.7348L11.6977 94.7836C14.4637 93.8589 16.9766 92.3034 19.0378 90.2401C21.099 88.1769 22.652 85.6624 23.5739 82.8955L26.5489 73.8039C26.7953 73.101 27.254 72.492 27.8616 72.0611C28.4692 71.6303 29.1956 71.3988 29.9404 71.3988C30.6853 71.3988 31.4117 71.6303 32.0193 72.0611C32.6269 72.492 33.0856 73.101 33.3319 73.8039L36.2831 82.8955C37.1883 85.6446 38.7158 88.1477 40.7469 90.2097C42.7779 92.2717 45.2576 93.837 47.9927 94.7836L57.0962 97.7348C57.7991 97.9812 58.4081 98.4399 58.839 99.0474C59.2698 99.655 59.5013 100.381 59.5013 101.126C59.5013 101.871 59.2698 102.598 58.839 103.205C58.4081 103.813 57.7991 104.271 57.0962 104.518L47.9927 107.481C45.2185 108.406 42.6984 109.966 40.6326 112.035C38.5668 114.105 37.0123 116.629 36.0927 119.405L33.1415 128.496C32.8952 129.199 32.4365 129.808 31.8289 130.239C31.2213 130.67 30.4949 130.901 29.75 130.901C29.0052 130.901 28.2787 130.67 27.6712 130.239C27.0636 129.808 26.6049 129.199 26.3585 128.496L23.3954 119.405C22.4723 116.637 20.9175 114.121 18.8541 112.058C16.7908 109.995 14.2755 108.44 11.5073 107.517L2.40383 104.565C1.70092 104.319 1.09192 103.86 0.661067 103.253C0.23021 102.645 -0.0012207 101.919 -0.0012207 101.174C-0.0012207 100.429 0.23021 99.7026 0.661067 99.095C1.09192 98.4875 1.70092 98.0288 2.40383 97.7824L2.58233 97.7348ZM38.6036 140.063C37.6935 140.681 36.7201 141.199 35.7 141.61V166.6C35.7 174.335 38.1514 181.475 42.3283 187.33L106.469 124.165C109.809 120.876 114.307 119.033 118.994 119.033C123.681 119.033 128.179 120.876 131.519 124.165L195.66 187.33C199.992 181.287 202.315 174.035 202.3 166.6V71.4001C202.3 61.9319 198.539 52.8514 191.844 46.1564C185.149 39.4613 176.068 35.7001 166.6 35.7001H117.953C118.651 37.5644 119 39.5319 119 41.6025C119 45.1725 117.929 48.5164 115.906 51.3724C113.883 54.2284 111.027 56.5013 107.457 57.6913L94.8192 61.8563C93.0342 62.4632 91.3682 63.4152 89.2262 65.3192C87.9172 66.6282 86.8462 68.1752 85.7752 70.9241L81.4912 83.9189C80.4083 86.8939 78.5043 89.6309 75.2913 92.1418C73.6253 93.3318 71.8403 94.1648 69.9363 94.6408C70.8883 96.6638 71.3643 98.9367 71.3643 101.198C71.3643 104.411 70.4123 107.517 68.5083 110.146C66.5924 112.764 63.9744 114.668 60.7614 115.858L51.7055 118.833C50.7535 119.19 49.8015 119.785 49.0875 120.5C48.3086 121.213 47.7336 122.12 47.4215 123.129L44.3275 132.673C43.1375 135.648 41.2335 138.147 38.6036 140.051M71.4 202.3C64.0036 202.302 56.789 200.007 50.7535 195.731L114.823 132.661C115.936 131.564 117.437 130.949 119 130.949C120.563 130.949 122.064 131.564 123.177 132.661L187.247 195.731C181.211 200.007 173.996 202.302 166.6 202.3H71.4ZM148.75 104.125C144.805 104.125 141.021 102.558 138.232 99.7683C135.442 96.9787 133.875 93.1952 133.875 89.2501C133.875 85.305 135.442 81.5215 138.232 78.7319C141.021 75.9423 144.805 74.3751 148.75 74.3751C152.695 74.3751 156.479 75.9423 159.268 78.7319C162.058 81.5215 163.625 85.305 163.625 89.2501C163.625 93.1952 162.058 96.9787 159.268 99.7683C156.479 102.558 152.695 104.125 148.75 104.125Z" fill="#4F46E5"/>
</g>
</g>
<defs>
<filter id="filter0_i_608_1255" x="-12" y="0" width="250" height="250" filterUnits="userSpaceOnUse" color-interpolation-filters="sRGB">
<feFlood flood-opacity="0" result="BackgroundImageFix"/>
<feBlend mode="normal" in="SourceGraphic" in2="BackgroundImageFix" result="shape"/>
<feColorMatrix in="SourceAlpha" type="matrix" values="0 0 0 0 0 0 0 0 0 0 0 0 0 0 0 0 0 0 127 0" result="hardAlpha"/>
<feOffset dx="-12" dy="12"/>
<feGaussianBlur stdDeviation="15"/>
<feComposite in2="hardAlpha" operator="arithmetic" k2="-1" k3="1"/>
<feColorMatrix type="matrix" values="0 0 0 0 0.309804 0 0 0 0 0.27451 0 0 0 0 0.898039 0 0 0 0.9 0"/>
<feBlend mode="normal" in2="shape" result="effect1_innerShadow_608_1255"/>
</filter>
<clipPath id="clip0_608_1255">
<rect width="238" height="238" fill="white"/>
</clipPath>
</defs>
</svg>
