<svg width="184" height="185" viewBox="0 0 184 185" fill="none" xmlns="http://www.w3.org/2000/svg">
<g filter="url(#filter0_ddiiii_608_1296)">
<path d="M115.623 17.75C125.608 17.7766 130.675 17.8299 135.051 17.9541L136.773 18.0162C138.761 18.0872 140.722 18.176 143.092 18.2825C152.535 18.7262 158.978 20.2173 164.631 22.4094C170.489 24.6636 175.423 27.7166 180.358 32.6422C184.872 37.0774 188.365 42.4444 190.591 48.3687C192.783 54.0221 194.274 60.4654 194.717 69.9172C194.824 72.278 194.913 74.2394 194.984 76.2362L195.037 77.958C195.17 82.3245 195.223 87.3921 195.241 97.3765L195.25 103.997V115.623C195.272 122.097 195.203 128.57 195.046 135.042L194.993 136.764C194.922 138.761 194.833 140.722 194.726 143.083C194.283 152.535 192.774 158.969 190.591 164.631C188.365 170.556 184.872 175.923 180.358 180.358C175.923 184.872 170.555 188.365 164.631 190.591C158.978 192.783 152.535 194.274 143.092 194.717L136.773 194.984L135.051 195.037C130.675 195.161 125.608 195.223 115.623 195.241L109.003 195.25H97.3853C90.9089 195.273 84.4324 195.205 77.9579 195.046L76.2362 194.993C74.1293 194.913 72.023 194.821 69.9172 194.717C60.4742 194.274 54.0309 192.783 48.3687 190.591C42.4475 188.363 37.0836 184.871 32.651 180.358C28.1332 175.923 24.6379 170.556 22.4093 164.631C20.2172 158.978 18.7262 152.535 18.2824 143.083L18.0162 136.764L17.9718 135.042C17.8082 128.57 17.7342 122.097 17.7499 115.623V97.3765C17.7254 90.9031 17.7904 84.4296 17.9452 77.958L18.0073 76.2362C18.0783 74.2394 18.167 72.278 18.2735 69.9172C18.7173 60.4654 20.2083 54.031 22.4004 48.3687C24.6342 42.442 28.1357 37.0747 32.6599 32.6422C37.0899 28.1297 42.4507 24.6377 48.3687 22.4094C54.0309 20.2173 60.4653 18.7262 69.9172 18.2825C72.2779 18.176 74.2482 18.0872 76.2362 18.0162L77.9579 17.963C84.4295 17.8053 90.903 17.7373 97.3764 17.7589L115.623 17.75ZM106.5 62.125C94.7309 62.125 83.444 66.8002 75.1221 75.1221C66.8001 83.4441 62.1249 94.731 62.1249 106.5C62.1249 118.269 66.8001 129.556 75.1221 137.878C83.444 146.2 94.7309 150.875 106.5 150.875C118.269 150.875 129.556 146.2 137.878 137.878C146.2 129.556 150.875 118.269 150.875 106.5C150.875 94.731 146.2 83.4441 137.878 75.1221C129.556 66.8002 118.269 62.125 106.5 62.125ZM106.5 79.875C109.996 79.8744 113.459 80.5625 116.689 81.9C119.92 83.2375 122.855 85.1982 125.328 87.6701C127.801 90.1421 129.762 93.0769 131.101 96.3069C132.44 99.537 133.129 102.999 133.129 106.496C133.13 109.992 132.442 113.454 131.104 116.685C129.767 119.915 127.806 122.851 125.334 125.324C122.862 127.796 119.927 129.758 116.697 131.097C113.467 132.435 110.005 133.124 106.509 133.125C99.4474 133.125 92.6752 130.32 87.6821 125.327C82.6889 120.334 79.8838 113.561 79.8838 106.5C79.8838 99.4386 82.6889 92.6664 87.6821 87.6733C92.6752 82.6801 99.4474 79.875 106.509 79.875M153.103 48.8125C150.16 48.8125 147.339 49.9813 145.258 52.0618C143.178 54.1423 142.009 56.964 142.009 59.9062C142.009 62.8485 143.178 65.6702 145.258 67.7507C147.339 69.8312 150.16 71 153.103 71C156.045 71 158.867 69.8312 160.947 67.7507C163.027 65.6702 164.196 62.8485 164.196 59.9062C164.196 56.964 163.027 54.1423 160.947 52.0618C158.867 49.9813 156.045 48.8125 153.103 48.8125Z" fill="#2563EB"/>
</g>
<defs>
<filter id="filter0_ddiiii_608_1296" x="5.74487" y="5.75" width="201.509" height="201.504" filterUnits="userSpaceOnUse" color-interpolation-filters="sRGB">
<feFlood flood-opacity="0" result="BackgroundImageFix"/>
<feColorMatrix in="SourceAlpha" type="matrix" values="0 0 0 0 0 0 0 0 0 0 0 0 0 0 0 0 0 0 127 0" result="hardAlpha"/>
<feOffset dx="1" dy="-1"/>
<feGaussianBlur stdDeviation="1"/>
<feColorMatrix type="matrix" values="0 0 0 0 0.145098 0 0 0 0 0.388235 0 0 0 0 0.921569 0 0 0 0.5 0"/>
<feBlend mode="normal" in2="BackgroundImageFix" result="effect1_dropShadow_608_1296"/>
<feColorMatrix in="SourceAlpha" type="matrix" values="0 0 0 0 0 0 0 0 0 0 0 0 0 0 0 0 0 0 127 0" result="hardAlpha"/>
<feOffset dx="-1" dy="1"/>
<feGaussianBlur stdDeviation="1"/>
<feColorMatrix type="matrix" values="0 0 0 0 0.145098 0 0 0 0 0.388235 0 0 0 0 0.921569 0 0 0 0.3 0"/>
<feBlend mode="normal" in2="effect1_dropShadow_608_1296" result="effect2_dropShadow_608_1296"/>
<feBlend mode="normal" in="SourceGraphic" in2="effect2_dropShadow_608_1296" result="shape"/>
<feColorMatrix in="SourceAlpha" type="matrix" values="0 0 0 0 0 0 0 0 0 0 0 0 0 0 0 0 0 0 127 0" result="hardAlpha"/>
<feOffset dx="-12" dy="12"/>
<feGaussianBlur stdDeviation="15"/>
<feComposite in2="hardAlpha" operator="arithmetic" k2="-1" k3="1"/>
<feColorMatrix type="matrix" values="0 0 0 0 0.145098 0 0 0 0 0.388235 0 0 0 0 0.921569 0 0 0 0.9 0"/>
<feBlend mode="normal" in2="shape" result="effect3_innerShadow_608_1296"/>
<feColorMatrix in="SourceAlpha" type="matrix" values="0 0 0 0 0 0 0 0 0 0 0 0 0 0 0 0 0 0 127 0" result="hardAlpha"/>
<feOffset dx="12" dy="-12"/>
<feGaussianBlur stdDeviation="12"/>
<feComposite in2="hardAlpha" operator="arithmetic" k2="-1" k3="1"/>
<feColorMatrix type="matrix" values="0 0 0 0 0.145098 0 0 0 0 0.388235 0 0 0 0 0.921569 0 0 0 0.9 0"/>
<feBlend mode="normal" in2="effect3_innerShadow_608_1296" result="effect4_innerShadow_608_1296"/>
<feColorMatrix in="SourceAlpha" type="matrix" values="0 0 0 0 0 0 0 0 0 0 0 0 0 0 0 0 0 0 127 0" result="hardAlpha"/>
<feOffset dx="-12" dy="-12"/>
<feGaussianBlur stdDeviation="12"/>
<feComposite in2="hardAlpha" operator="arithmetic" k2="-1" k3="1"/>
<feColorMatrix type="matrix" values="0 0 0 0 0.145098 0 0 0 0 0.388235 0 0 0 0 0.921569 0 0 0 0.2 0"/>
<feBlend mode="normal" in2="effect4_innerShadow_608_1296" result="effect5_innerShadow_608_1296"/>
<feColorMatrix in="SourceAlpha" type="matrix" values="0 0 0 0 0 0 0 0 0 0 0 0 0 0 0 0 0 0 127 0" result="hardAlpha"/>
<feOffset dx="12" dy="12"/>
<feGaussianBlur stdDeviation="12"/>
<feComposite in2="hardAlpha" operator="arithmetic" k2="-1" k3="1"/>
<feColorMatrix type="matrix" values="0 0 0 0 0.145098 0 0 0 0 0.388235 0 0 0 0 0.921569 0 0 0 0.2 0"/>
<feBlend mode="normal" in2="effect5_innerShadow_608_1296" result="effect6_innerShadow_608_1296"/>
</filter>
</defs>
</svg>
