<svg width="147" height="168" viewBox="0 0 147 168" fill="none" xmlns="http://www.w3.org/2000/svg">
<g filter="url(#filter0_ddiiii_608_1319)">
<path d="M93.0001 3C142.707 3 183 43.293 183 92.9999C183 142.707 142.707 183 93.0001 183C77.0949 183.027 61.4693 178.818 47.7301 170.805L3.03614 183L15.2041 138.288C7.18476 124.544 2.97227 108.912 3.00014 92.9999C3.00014 43.293 43.2931 3 93.0001 3ZM62.3281 50.7L60.5281 50.772C59.3643 50.8522 58.2272 51.1578 57.1801 51.672C56.2043 52.2256 55.3132 52.9166 54.5341 53.724C53.4541 54.741 52.8421 55.623 52.1851 56.478C48.8562 60.8061 47.0639 66.1198 47.0911 71.5799C47.1091 75.9899 48.2611 80.2829 50.0611 84.2969C53.7421 92.4149 59.7991 101.01 67.7911 108.975C69.7171 110.892 71.6071 112.818 73.6411 114.609C83.572 123.352 95.4056 129.657 108.201 133.023L113.313 133.806C114.978 133.896 116.643 133.77 118.317 133.689C120.938 133.551 123.496 132.841 125.814 131.61C126.992 131.001 128.142 130.34 129.261 129.63C129.261 129.63 129.642 129.372 130.386 128.82C131.601 127.92 132.348 127.281 133.356 126.228C134.112 125.448 134.742 124.542 135.246 123.51C135.948 122.043 136.65 119.244 136.938 116.913C137.154 115.131 137.091 114.159 137.064 113.556C137.028 112.593 136.227 111.594 135.354 111.171L130.116 108.822C130.116 108.822 122.286 105.411 117.498 103.233C116.997 103.015 116.46 102.89 115.914 102.864C115.298 102.799 114.676 102.868 114.089 103.065C113.502 103.263 112.964 103.584 112.512 104.007C112.467 103.989 111.864 104.502 105.357 112.386C104.984 112.888 104.469 113.267 103.879 113.475C103.289 113.684 102.651 113.712 102.045 113.556C101.459 113.4 100.884 113.201 100.326 112.962C99.2101 112.494 98.8231 112.314 98.0581 111.99C92.8909 109.739 88.108 106.693 83.8831 102.963C82.7491 101.973 81.6961 100.893 80.6161 99.8489C77.0756 96.4578 73.9898 92.6218 71.4361 88.4369L70.9051 87.5819C70.5294 87.0041 70.2214 86.3851 69.9871 85.7369C69.6451 84.4139 70.5361 83.3519 70.5361 83.3519C70.5361 83.3519 72.7231 80.9579 73.7401 79.6619C74.7301 78.4019 75.5671 77.1779 76.1071 76.3049C77.1691 74.5949 77.5021 72.84 76.9441 71.4809C74.4241 65.325 71.8201 59.202 69.1321 53.112C68.6011 51.906 67.0261 51.042 65.5951 50.871C65.1091 50.811 64.6231 50.763 64.1371 50.727C62.9286 50.6576 61.7169 50.6697 60.5101 50.763L62.3281 50.7Z" fill="#0F766E"/>
</g>
<defs>
<filter id="filter0_ddiiii_608_1319" x="-9" y="-9" width="204" height="204" filterUnits="userSpaceOnUse" color-interpolation-filters="sRGB">
<feFlood flood-opacity="0" result="BackgroundImageFix"/>
<feColorMatrix in="SourceAlpha" type="matrix" values="0 0 0 0 0 0 0 0 0 0 0 0 0 0 0 0 0 0 127 0" result="hardAlpha"/>
<feOffset dx="1" dy="-1"/>
<feGaussianBlur stdDeviation="1"/>
<feColorMatrix type="matrix" values="0 0 0 0 0.0588235 0 0 0 0 0.462745 0 0 0 0 0.431373 0 0 0 0.5 0"/>
<feBlend mode="normal" in2="BackgroundImageFix" result="effect1_dropShadow_608_1319"/>
<feColorMatrix in="SourceAlpha" type="matrix" values="0 0 0 0 0 0 0 0 0 0 0 0 0 0 0 0 0 0 127 0" result="hardAlpha"/>
<feOffset dx="-1" dy="1"/>
<feGaussianBlur stdDeviation="1"/>
<feColorMatrix type="matrix" values="0 0 0 0 0.0588235 0 0 0 0 0.462745 0 0 0 0 0.431373 0 0 0 0.3 0"/>
<feBlend mode="normal" in2="effect1_dropShadow_608_1319" result="effect2_dropShadow_608_1319"/>
<feBlend mode="normal" in="SourceGraphic" in2="effect2_dropShadow_608_1319" result="shape"/>
<feColorMatrix in="SourceAlpha" type="matrix" values="0 0 0 0 0 0 0 0 0 0 0 0 0 0 0 0 0 0 127 0" result="hardAlpha"/>
<feOffset dx="-12" dy="12"/>
<feGaussianBlur stdDeviation="15"/>
<feComposite in2="hardAlpha" operator="arithmetic" k2="-1" k3="1"/>
<feColorMatrix type="matrix" values="0 0 0 0 0.0588235 0 0 0 0 0.462745 0 0 0 0 0.431373 0 0 0 0.9 0"/>
<feBlend mode="normal" in2="shape" result="effect3_innerShadow_608_1319"/>
<feColorMatrix in="SourceAlpha" type="matrix" values="0 0 0 0 0 0 0 0 0 0 0 0 0 0 0 0 0 0 127 0" result="hardAlpha"/>
<feOffset dx="12" dy="-12"/>
<feGaussianBlur stdDeviation="12"/>
<feComposite in2="hardAlpha" operator="arithmetic" k2="-1" k3="1"/>
<feColorMatrix type="matrix" values="0 0 0 0 0.0588235 0 0 0 0 0.462745 0 0 0 0 0.431373 0 0 0 0.9 0"/>
<feBlend mode="normal" in2="effect3_innerShadow_608_1319" result="effect4_innerShadow_608_1319"/>
<feColorMatrix in="SourceAlpha" type="matrix" values="0 0 0 0 0 0 0 0 0 0 0 0 0 0 0 0 0 0 127 0" result="hardAlpha"/>
<feOffset dx="-12" dy="-12"/>
<feGaussianBlur stdDeviation="12"/>
<feComposite in2="hardAlpha" operator="arithmetic" k2="-1" k3="1"/>
<feColorMatrix type="matrix" values="0 0 0 0 0.0588235 0 0 0 0 0.462745 0 0 0 0 0.431373 0 0 0 0.2 0"/>
<feBlend mode="normal" in2="effect4_innerShadow_608_1319" result="effect5_innerShadow_608_1319"/>
<feColorMatrix in="SourceAlpha" type="matrix" values="0 0 0 0 0 0 0 0 0 0 0 0 0 0 0 0 0 0 127 0" result="hardAlpha"/>
<feOffset dx="12" dy="12"/>
<feGaussianBlur stdDeviation="12"/>
<feComposite in2="hardAlpha" operator="arithmetic" k2="-1" k3="1"/>
<feColorMatrix type="matrix" values="0 0 0 0 0.0588235 0 0 0 0 0.462745 0 0 0 0 0.431373 0 0 0 0.2 0"/>
<feBlend mode="normal" in2="effect5_innerShadow_608_1319" result="effect6_innerShadow_608_1319"/>
</filter>
</defs>
</svg>
